<?xml version="1.0" encoding="UTF-8" standalone="no"?>
<!DOCTYPE svg PUBLIC "-//W3C//DTD SVG 1.1//EN"
 "http://www.w3.org/Graphics/SVG/1.1/DTD/svg11.dtd">
<!-- Generated by graphviz version 2.43.0 (0)
 -->
<!-- Title: AFNe Pages: 1 -->
<svg width="2125pt" height="166pt"
 viewBox="0.00 0.00 2124.64 166.00" xmlns="http://www.w3.org/2000/svg" xmlns:xlink="http://www.w3.org/1999/xlink">
<g id="graph0" class="graph" transform="scale(1 1) rotate(0) translate(18 148)">
<title>AFNe</title>
<polygon fill="white" stroke="transparent" points="-18,18 -18,-148 2106.64,-148 2106.64,18 -18,18"/>
<text text-anchor="middle" x="1044.32" y="-111.6" font-family="DejaVu Sans" font-size="18.00">ER&#45;04 — Comando de tempo: AFNε (inicial q0, final q31)</text>
<!-- __ini -->
<g id="node1" class="node">
<title>__ini</title>
<ellipse fill="black" stroke="black" cx="4.32" cy="-52" rx="4.32" ry="4.32"/>
</g>
<!-- q0 -->
<g id="node2" class="node">
<title>q0</title>
<ellipse fill="none" stroke="black" cx="67.64" cy="-52" rx="18" ry="18"/>
<text text-anchor="middle" x="67.64" y="-48.6" font-family="DejaVu Sans" font-size="13.00">q0</text>
</g>
<!-- __ini&#45;&gt;q0 -->
<g id="edge1" class="edge">
<title>__ini&#45;&gt;q0</title>
<path fill="none" stroke="black" d="M8.97,-52C14.99,-52 27.52,-52 39.37,-52"/>
<polygon fill="black" stroke="black" points="39.42,-55.5 49.42,-52 39.42,-48.5 39.42,-55.5"/>
</g>
<!-- q1 -->
<g id="node3" class="node">
<title>q1</title>
<ellipse fill="none" stroke="black" cx="156.64" cy="-52" rx="18" ry="18"/>
<text text-anchor="middle" x="156.64" y="-48.6" font-family="DejaVu Sans" font-size="13.00">q1</text>
</g>
<!-- q0&#45;&gt;q1 -->
<g id="edge2" class="edge">
<title>q0&#45;&gt;q1</title>
<path fill="none" stroke="black" d="M85.83,-52C97.98,-52 114.53,-52 128.46,-52"/>
<polygon fill="black" stroke="black" points="128.49,-55.5 138.49,-52 128.49,-48.5 128.49,-55.5"/>
<text text-anchor="middle" x="112.14" y="-55.6" font-family="DejaVu Sans" font-size="13.00">@</text>
</g>
<!-- q15 -->
<g id="node17" class="node">
<title>q15</title>
<ellipse fill="none" stroke="black" cx="239.64" cy="-52" rx="18" ry="18"/>
<text text-anchor="middle" x="239.64" y="-48.6" font-family="DejaVu Sans" font-size="13.00">q15</text>
</g>
<!-- q1&#45;&gt;q15 -->
<g id="edge32" class="edge">
<title>q1&#45;&gt;q15</title>
<path fill="none" stroke="#8a8a8a" stroke-dasharray="5,2" d="M174.82,-52C185.45,-52 199.33,-52 211.44,-52"/>
<polygon fill="#8a8a8a" stroke="#8a8a8a" points="211.49,-55.5 221.49,-52 211.49,-48.5 211.49,-55.5"/>
<text text-anchor="middle" x="198.14" y="-55.6" font-family="DejaVu Sans" font-size="13.00" fill="#666666">ε</text>
</g>
<!-- q2 -->
<g id="node4" class="node">
<title>q2</title>
<ellipse fill="none" stroke="black" cx="322.64" cy="-82" rx="18" ry="18"/>
<text text-anchor="middle" x="322.64" y="-78.6" font-family="DejaVu Sans" font-size="13.00">q2</text>
</g>
<!-- q3 -->
<g id="node5" class="node">
<title>q3</title>
<ellipse fill="none" stroke="black" cx="407.64" cy="-82" rx="18" ry="18"/>
<text text-anchor="middle" x="407.64" y="-78.6" font-family="DejaVu Sans" font-size="13.00">q3</text>
</g>
<!-- q2&#45;&gt;q3 -->
<g id="edge3" class="edge">
<title>q2&#45;&gt;q3</title>
<path fill="none" stroke="black" d="M340.84,-82C351.97,-82 366.7,-82 379.4,-82"/>
<polygon fill="black" stroke="black" points="379.46,-85.5 389.46,-82 379.46,-78.5 379.46,-85.5"/>
<text text-anchor="middle" x="365.14" y="-85.6" font-family="DejaVu Sans" font-size="13.00">e</text>
</g>
<!-- q4 -->
<g id="node6" class="node">
<title>q4</title>
<ellipse fill="none" stroke="black" cx="492.64" cy="-82" rx="18" ry="18"/>
<text text-anchor="middle" x="492.64" y="-78.6" font-family="DejaVu Sans" font-size="13.00">q4</text>
</g>
<!-- q3&#45;&gt;q4 -->
<g id="edge4" class="edge">
<title>q3&#45;&gt;q4</title>
<path fill="none" stroke="black" d="M425.84,-82C436.97,-82 451.7,-82 464.4,-82"/>
<polygon fill="black" stroke="black" points="464.46,-85.5 474.46,-82 464.46,-78.5 464.46,-85.5"/>
<text text-anchor="middle" x="450.14" y="-85.6" font-family="DejaVu Sans" font-size="13.00">s</text>
</g>
<!-- q5 -->
<g id="node7" class="node">
<title>q5</title>
<ellipse fill="none" stroke="black" cx="577.64" cy="-82" rx="18" ry="18"/>
<text text-anchor="middle" x="577.64" y="-78.6" font-family="DejaVu Sans" font-size="13.00">q5</text>
</g>
<!-- q4&#45;&gt;q5 -->
<g id="edge5" class="edge">
<title>q4&#45;&gt;q5</title>
<path fill="none" stroke="black" d="M510.84,-82C521.97,-82 536.7,-82 549.4,-82"/>
<polygon fill="black" stroke="black" points="549.46,-85.5 559.46,-82 549.46,-78.5 549.46,-85.5"/>
<text text-anchor="middle" x="535.14" y="-85.6" font-family="DejaVu Sans" font-size="13.00">p</text>
</g>
<!-- q6 -->
<g id="node8" class="node">
<title>q6</title>
<ellipse fill="none" stroke="black" cx="662.64" cy="-82" rx="18" ry="18"/>
<text text-anchor="middle" x="662.64" y="-78.6" font-family="DejaVu Sans" font-size="13.00">q6</text>
</g>
<!-- q5&#45;&gt;q6 -->
<g id="edge6" class="edge">
<title>q5&#45;&gt;q6</title>
<path fill="none" stroke="black" d="M595.84,-82C606.97,-82 621.7,-82 634.4,-82"/>
<polygon fill="black" stroke="black" points="634.46,-85.5 644.46,-82 634.46,-78.5 634.46,-85.5"/>
<text text-anchor="middle" x="620.14" y="-85.6" font-family="DejaVu Sans" font-size="13.00">e</text>
</g>
<!-- q7 -->
<g id="node9" class="node">
<title>q7</title>
<ellipse fill="none" stroke="black" cx="747.64" cy="-81" rx="18" ry="18"/>
<text text-anchor="middle" x="747.64" y="-77.6" font-family="DejaVu Sans" font-size="13.00">q7</text>
</g>
<!-- q6&#45;&gt;q7 -->
<g id="edge7" class="edge">
<title>q6&#45;&gt;q7</title>
<path fill="none" stroke="black" d="M680.84,-81.79C691.97,-81.66 706.7,-81.48 719.4,-81.33"/>
<polygon fill="black" stroke="black" points="719.51,-84.83 729.46,-81.21 719.42,-77.83 719.51,-84.83"/>
<text text-anchor="middle" x="705.14" y="-84.6" font-family="DejaVu Sans" font-size="13.00">r</text>
</g>
<!-- q8 -->
<g id="node10" class="node">
<title>q8</title>
<ellipse fill="none" stroke="black" cx="859.64" cy="-81" rx="18" ry="18"/>
<text text-anchor="middle" x="859.64" y="-77.6" font-family="DejaVu Sans" font-size="13.00">q8</text>
</g>
<!-- q7&#45;&gt;q8 -->
<g id="edge8" class="edge">
<title>q7&#45;&gt;q8</title>
<path fill="none" stroke="black" d="M765.83,-81C783.43,-81 811.03,-81 831.57,-81"/>
<polygon fill="black" stroke="black" points="831.57,-84.5 841.57,-81 831.57,-77.5 831.57,-84.5"/>
<text text-anchor="middle" x="803.64" y="-84.6" font-family="DejaVu Sans" font-size="13.00">a</text>
</g>
<!-- q16 -->
<g id="node18" class="node">
<title>q16</title>
<ellipse fill="none" stroke="black" cx="942.64" cy="-46" rx="18" ry="18"/>
<text text-anchor="middle" x="942.64" y="-42.6" font-family="DejaVu Sans" font-size="13.00">q16</text>
</g>
<!-- q8&#45;&gt;q16 -->
<g id="edge15" class="edge">
<title>q8&#45;&gt;q16</title>
<path fill="none" stroke="#8a8a8a" stroke-dasharray="5,2" d="M876.64,-74.09C888.03,-69.16 903.56,-62.45 916.59,-56.83"/>
<polygon fill="#8a8a8a" stroke="#8a8a8a" points="918.15,-59.96 925.95,-52.78 915.38,-53.54 918.15,-59.96"/>
<text text-anchor="middle" x="901.14" y="-67.6" font-family="DejaVu Sans" font-size="13.00" fill="#666666">ε</text>
</g>
<!-- q9 -->
<g id="node11" class="node">
<title>q9</title>
<ellipse fill="none" stroke="black" cx="322.64" cy="-24" rx="18" ry="18"/>
<text text-anchor="middle" x="322.64" y="-20.6" font-family="DejaVu Sans" font-size="13.00">q9</text>
</g>
<!-- q10 -->
<g id="node12" class="node">
<title>q10</title>
<ellipse fill="none" stroke="black" cx="407.64" cy="-24" rx="18" ry="18"/>
<text text-anchor="middle" x="407.64" y="-20.6" font-family="DejaVu Sans" font-size="13.00">q10</text>
</g>
<!-- q9&#45;&gt;q10 -->
<g id="edge9" class="edge">
<title>q9&#45;&gt;q10</title>
<path fill="none" stroke="black" d="M340.84,-24C351.97,-24 366.7,-24 379.4,-24"/>
<polygon fill="black" stroke="black" points="379.46,-27.5 389.46,-24 379.46,-20.5 379.46,-27.5"/>
<text text-anchor="middle" x="365.14" y="-27.6" font-family="DejaVu Sans" font-size="13.00">p</text>
</g>
<!-- q11 -->
<g id="node13" class="node">
<title>q11</title>
<ellipse fill="none" stroke="black" cx="492.64" cy="-24" rx="18" ry="18"/>
<text text-anchor="middle" x="492.64" y="-20.6" font-family="DejaVu Sans" font-size="13.00">q11</text>
</g>
<!-- q10&#45;&gt;q11 -->
<g id="edge10" class="edge">
<title>q10&#45;&gt;q11</title>
<path fill="none" stroke="black" d="M425.84,-24C436.97,-24 451.7,-24 464.4,-24"/>
<polygon fill="black" stroke="black" points="464.46,-27.5 474.46,-24 464.46,-20.5 464.46,-27.5"/>
<text text-anchor="middle" x="450.14" y="-27.6" font-family="DejaVu Sans" font-size="13.00">a</text>
</g>
<!-- q12 -->
<g id="node14" class="node">
<title>q12</title>
<ellipse fill="none" stroke="black" cx="577.64" cy="-24" rx="18" ry="18"/>
<text text-anchor="middle" x="577.64" y="-20.6" font-family="DejaVu Sans" font-size="13.00">q12</text>
</g>
<!-- q11&#45;&gt;q12 -->
<g id="edge11" class="edge">
<title>q11&#45;&gt;q12</title>
<path fill="none" stroke="black" d="M510.84,-24C521.97,-24 536.7,-24 549.4,-24"/>
<polygon fill="black" stroke="black" points="549.46,-27.5 559.46,-24 549.46,-20.5 549.46,-27.5"/>
<text text-anchor="middle" x="535.14" y="-27.6" font-family="DejaVu Sans" font-size="13.00">u</text>
</g>
<!-- q13 -->
<g id="node15" class="node">
<title>q13</title>
<ellipse fill="none" stroke="black" cx="662.64" cy="-24" rx="18" ry="18"/>
<text text-anchor="middle" x="662.64" y="-20.6" font-family="DejaVu Sans" font-size="13.00">q13</text>
</g>
<!-- q12&#45;&gt;q13 -->
<g id="edge12" class="edge">
<title>q12&#45;&gt;q13</title>
<path fill="none" stroke="black" d="M595.84,-24C606.97,-24 621.7,-24 634.4,-24"/>
<polygon fill="black" stroke="black" points="634.46,-27.5 644.46,-24 634.46,-20.5 634.46,-27.5"/>
<text text-anchor="middle" x="620.14" y="-27.6" font-family="DejaVu Sans" font-size="13.00">s</text>
</g>
<!-- q14 -->
<g id="node16" class="node">
<title>q14</title>
<ellipse fill="none" stroke="black" cx="803.64" cy="-27" rx="18" ry="18"/>
<text text-anchor="middle" x="803.64" y="-23.6" font-family="DejaVu Sans" font-size="13.00">q14</text>
</g>
<!-- q13&#45;&gt;q14 -->
<g id="edge13" class="edge">
<title>q13&#45;&gt;q14</title>
<path fill="none" stroke="black" d="M680.68,-24.37C704.24,-24.88 747,-25.8 775.11,-26.41"/>
<polygon fill="black" stroke="black" points="775.38,-29.91 785.46,-26.63 775.53,-22.91 775.38,-29.91"/>
<text text-anchor="middle" x="705.14" y="-27.6" font-family="DejaVu Sans" font-size="13.00">a</text>
</g>
<!-- q14&#45;&gt;q16 -->
<g id="edge17" class="edge">
<title>q14&#45;&gt;q16</title>
<path fill="none" stroke="#8a8a8a" stroke-dasharray="5,2" d="M821.71,-29.37C845.02,-32.6 887.03,-38.43 914.63,-42.25"/>
<polygon fill="#8a8a8a" stroke="#8a8a8a" points="914.4,-45.75 924.78,-43.66 915.36,-38.82 914.4,-45.75"/>
<text text-anchor="middle" x="859.64" y="-39.6" font-family="DejaVu Sans" font-size="13.00" fill="#666666">ε</text>
</g>
<!-- q15&#45;&gt;q2 -->
<g id="edge14" class="edge">
<title>q15&#45;&gt;q2</title>
<path fill="none" stroke="#8a8a8a" stroke-dasharray="5,2" d="M256.64,-57.93C267.78,-62.05 282.86,-67.64 295.7,-72.39"/>
<polygon fill="#8a8a8a" stroke="#8a8a8a" points="294.8,-75.79 305.39,-75.98 297.23,-69.23 294.8,-75.79"/>
<text text-anchor="middle" x="281.14" y="-70.6" font-family="DejaVu Sans" font-size="13.00" fill="#666666">ε</text>
</g>
<!-- q15&#45;&gt;q9 -->
<g id="edge16" class="edge">
<title>q15&#45;&gt;q9</title>
<path fill="none" stroke="#8a8a8a" stroke-dasharray="5,2" d="M256.29,-44.65C262.81,-41.74 270.51,-38.5 277.64,-36 283.15,-34.07 289.14,-32.25 294.87,-30.65"/>
<polygon fill="#8a8a8a" stroke="#8a8a8a" points="296,-33.97 304.75,-28.01 294.19,-27.21 296,-33.97"/>
<text text-anchor="middle" x="281.14" y="-39.6" font-family="DejaVu Sans" font-size="13.00" fill="#666666">ε</text>
</g>
<!-- q17 -->
<g id="node19" class="node">
<title>q17</title>
<ellipse fill="none" stroke="black" cx="1025.64" cy="-46" rx="18" ry="18"/>
<text text-anchor="middle" x="1025.64" y="-42.6" font-family="DejaVu Sans" font-size="13.00">q17</text>
</g>
<!-- q16&#45;&gt;q17 -->
<g id="edge33" class="edge">
<title>q16&#45;&gt;q17</title>
<path fill="none" stroke="#8a8a8a" stroke-dasharray="5,2" d="M960.82,-46C971.45,-46 985.33,-46 997.44,-46"/>
<polygon fill="#8a8a8a" stroke="#8a8a8a" points="997.49,-49.5 1007.49,-46 997.49,-42.5 997.49,-49.5"/>
<text text-anchor="middle" x="984.14" y="-49.6" font-family="DejaVu Sans" font-size="13.00" fill="#666666">ε</text>
</g>
<!-- q18 -->
<g id="node20" class="node">
<title>q18</title>
<ellipse fill="none" stroke="black" cx="1110.64" cy="-46" rx="18" ry="18"/>
<text text-anchor="middle" x="1110.64" y="-42.6" font-family="DejaVu Sans" font-size="13.00">q18</text>
</g>
<!-- q17&#45;&gt;q18 -->
<g id="edge18" class="edge">
<title>q17&#45;&gt;q18</title>
<path fill="none" stroke="black" d="M1043.84,-46C1054.97,-46 1069.7,-46 1082.4,-46"/>
<polygon fill="black" stroke="black" points="1082.46,-49.5 1092.46,-46 1082.46,-42.5 1082.46,-49.5"/>
<text text-anchor="middle" x="1068.14" y="-49.6" font-family="DejaVu Sans" font-size="13.00">␣</text>
</g>
<!-- q19 -->
<g id="node21" class="node">
<title>q19</title>
<ellipse fill="none" stroke="black" cx="1193.64" cy="-46" rx="18" ry="18"/>
<text text-anchor="middle" x="1193.64" y="-42.6" font-family="DejaVu Sans" font-size="13.00">q19</text>
</g>
<!-- q18&#45;&gt;q19 -->
<g id="edge34" class="edge">
<title>q18&#45;&gt;q19</title>
<path fill="none" stroke="#8a8a8a" stroke-dasharray="5,2" d="M1128.82,-46C1139.45,-46 1153.33,-46 1165.44,-46"/>
<polygon fill="#8a8a8a" stroke="#8a8a8a" points="1165.49,-49.5 1175.49,-46 1165.49,-42.5 1165.49,-49.5"/>
<text text-anchor="middle" x="1152.14" y="-49.6" font-family="DejaVu Sans" font-size="13.00" fill="#666666">ε</text>
</g>
<!-- q20 -->
<g id="node22" class="node">
<title>q20</title>
<ellipse fill="none" stroke="black" cx="1278.64" cy="-46" rx="18" ry="18"/>
<text text-anchor="middle" x="1278.64" y="-42.6" font-family="DejaVu Sans" font-size="13.00">q20</text>
</g>
<!-- q19&#45;&gt;q20 -->
<g id="edge19" class="edge">
<title>q19&#45;&gt;q20</title>
<path fill="none" stroke="black" d="M1211.84,-46C1222.97,-46 1237.7,-46 1250.4,-46"/>
<polygon fill="black" stroke="black" points="1250.46,-49.5 1260.46,-46 1250.46,-42.5 1250.46,-49.5"/>
<text text-anchor="middle" x="1236.14" y="-49.6" font-family="DejaVu Sans" font-size="13.00">n</text>
</g>
<!-- q23 -->
<g id="node25" class="node">
<title>q23</title>
<ellipse fill="none" stroke="black" cx="1361.64" cy="-46" rx="18" ry="18"/>
<text text-anchor="middle" x="1361.64" y="-42.6" font-family="DejaVu Sans" font-size="13.00">q23</text>
</g>
<!-- q20&#45;&gt;q23 -->
<g id="edge35" class="edge">
<title>q20&#45;&gt;q23</title>
<path fill="none" stroke="#8a8a8a" stroke-dasharray="5,2" d="M1296.82,-46C1307.45,-46 1321.33,-46 1333.44,-46"/>
<polygon fill="#8a8a8a" stroke="#8a8a8a" points="1333.49,-49.5 1343.49,-46 1333.49,-42.5 1333.49,-49.5"/>
<text text-anchor="middle" x="1320.14" y="-49.6" font-family="DejaVu Sans" font-size="13.00" fill="#666666">ε</text>
</g>
<!-- q21 -->
<g id="node23" class="node">
<title>q21</title>
<ellipse fill="none" stroke="black" cx="1444.64" cy="-79" rx="18" ry="18"/>
<text text-anchor="middle" x="1444.64" y="-75.6" font-family="DejaVu Sans" font-size="13.00">q21</text>
</g>
<!-- q22 -->
<g id="node24" class="node">
<title>q22</title>
<ellipse fill="none" stroke="black" cx="1529.64" cy="-79" rx="18" ry="18"/>
<text text-anchor="middle" x="1529.64" y="-75.6" font-family="DejaVu Sans" font-size="13.00">q22</text>
</g>
<!-- q21&#45;&gt;q22 -->
<g id="edge20" class="edge">
<title>q21&#45;&gt;q22</title>
<path fill="none" stroke="black" d="M1462.06,-83.89C1468.43,-85.54 1475.81,-87.18 1482.64,-88 1489.21,-88.79 1496.26,-88.17 1502.81,-86.95"/>
<polygon fill="black" stroke="black" points="1503.61,-90.36 1512.55,-84.67 1502.02,-83.54 1503.61,-90.36"/>
<text text-anchor="middle" x="1487.14" y="-91.6" font-family="DejaVu Sans" font-size="13.00">d</text>
</g>
<!-- q22&#45;&gt;q21 -->
<g id="edge23" class="edge">
<title>q22&#45;&gt;q21</title>
<path fill="none" stroke="#8a8a8a" stroke-dasharray="5,2" d="M1512.25,-73.57C1505.89,-71.73 1498.5,-69.91 1491.64,-69 1485.05,-68.12 1478,-68.82 1471.45,-70.17"/>
<polygon fill="#8a8a8a" stroke="#8a8a8a" points="1470.5,-66.8 1461.71,-72.7 1472.26,-73.57 1470.5,-66.8"/>
<text text-anchor="middle" x="1487.14" y="-72.6" font-family="DejaVu Sans" font-size="13.00" fill="#666666">ε</text>
</g>
<!-- q24 -->
<g id="node26" class="node">
<title>q24</title>
<ellipse fill="none" stroke="black" cx="1612.64" cy="-46" rx="18" ry="18"/>
<text text-anchor="middle" x="1612.64" y="-42.6" font-family="DejaVu Sans" font-size="13.00">q24</text>
</g>
<!-- q22&#45;&gt;q24 -->
<g id="edge24" class="edge">
<title>q22&#45;&gt;q24</title>
<path fill="none" stroke="#8a8a8a" stroke-dasharray="5,2" d="M1546.64,-72.48C1557.96,-67.87 1573.36,-61.59 1586.33,-56.31"/>
<polygon fill="#8a8a8a" stroke="#8a8a8a" points="1587.73,-59.52 1595.67,-52.51 1585.09,-53.04 1587.73,-59.52"/>
<text text-anchor="middle" x="1571.14" y="-66.6" font-family="DejaVu Sans" font-size="13.00" fill="#666666">ε</text>
</g>
<!-- q23&#45;&gt;q21 -->
<g id="edge21" class="edge">
<title>q23&#45;&gt;q21</title>
<path fill="none" stroke="#8a8a8a" stroke-dasharray="5,2" d="M1378.64,-52.52C1389.96,-57.13 1405.36,-63.41 1418.33,-68.69"/>
<polygon fill="#8a8a8a" stroke="#8a8a8a" points="1417.09,-71.96 1427.67,-72.49 1419.73,-65.48 1417.09,-71.96"/>
<text text-anchor="middle" x="1403.14" y="-66.6" font-family="DejaVu Sans" font-size="13.00" fill="#666666">ε</text>
</g>
<!-- q23&#45;&gt;q24 -->
<g id="edge22" class="edge">
<title>q23&#45;&gt;q24</title>
<path fill="none" stroke="#8a8a8a" stroke-dasharray="5,2" d="M1379.75,-46C1422.22,-46 1532.72,-46 1584.33,-46"/>
<polygon fill="#8a8a8a" stroke="#8a8a8a" points="1584.41,-49.5 1594.41,-46 1584.41,-42.5 1584.41,-49.5"/>
<text text-anchor="middle" x="1487.14" y="-49.6" font-family="DejaVu Sans" font-size="13.00" fill="#666666">ε</text>
</g>
<!-- q30 -->
<g id="node32" class="node">
<title>q30</title>
<ellipse fill="none" stroke="black" cx="1695.64" cy="-46" rx="18" ry="18"/>
<text text-anchor="middle" x="1695.64" y="-42.6" font-family="DejaVu Sans" font-size="13.00">q30</text>
</g>
<!-- q24&#45;&gt;q30 -->
<g id="edge36" class="edge">
<title>q24&#45;&gt;q30</title>
<path fill="none" stroke="#8a8a8a" stroke-dasharray="5,2" d="M1630.82,-46C1641.45,-46 1655.33,-46 1667.44,-46"/>
<polygon fill="#8a8a8a" stroke="#8a8a8a" points="1667.49,-49.5 1677.49,-46 1667.49,-42.5 1667.49,-49.5"/>
<text text-anchor="middle" x="1654.14" y="-49.6" font-family="DejaVu Sans" font-size="13.00" fill="#666666">ε</text>
</g>
<!-- q25 -->
<g id="node27" class="node">
<title>q25</title>
<ellipse fill="none" stroke="black" cx="1778.64" cy="-76" rx="18" ry="18"/>
<text text-anchor="middle" x="1778.64" y="-72.6" font-family="DejaVu Sans" font-size="13.00">q25</text>
</g>
<!-- q26 -->
<g id="node28" class="node">
<title>q26</title>
<ellipse fill="none" stroke="black" cx="1867.64" cy="-75" rx="18" ry="18"/>
<text text-anchor="middle" x="1867.64" y="-71.6" font-family="DejaVu Sans" font-size="13.00">q26</text>
</g>
<!-- q25&#45;&gt;q26 -->
<g id="edge25" class="edge">
<title>q25&#45;&gt;q26</title>
<path fill="none" stroke="black" d="M1796.83,-75.8C1808.98,-75.66 1825.53,-75.47 1839.46,-75.31"/>
<polygon fill="black" stroke="black" points="1839.53,-78.81 1849.49,-75.2 1839.45,-71.81 1839.53,-78.81"/>
<text text-anchor="middle" x="1823.14" y="-78.6" font-family="DejaVu Sans" font-size="13.00">m</text>
</g>
<!-- q27 -->
<g id="node29" class="node">
<title>q27</title>
<ellipse fill="none" stroke="black" cx="1979.64" cy="-75" rx="18" ry="18"/>
<text text-anchor="middle" x="1979.64" y="-71.6" font-family="DejaVu Sans" font-size="13.00">q27</text>
</g>
<!-- q26&#45;&gt;q27 -->
<g id="edge26" class="edge">
<title>q26&#45;&gt;q27</title>
<path fill="none" stroke="black" d="M1885.83,-75C1903.43,-75 1931.03,-75 1951.57,-75"/>
<polygon fill="black" stroke="black" points="1951.57,-78.5 1961.57,-75 1951.57,-71.5 1951.57,-78.5"/>
<text text-anchor="middle" x="1923.64" y="-78.6" font-family="DejaVu Sans" font-size="13.00">s</text>
</g>
<!-- q31 -->
<g id="node33" class="node">
<title>q31</title>
<ellipse fill="none" stroke="black" cx="2066.64" cy="-40" rx="18" ry="18"/>
<ellipse fill="none" stroke="black" cx="2066.64" cy="-40" rx="22" ry="22"/>
<text text-anchor="middle" x="2066.64" y="-36.6" font-family="DejaVu Sans" font-size="13.00">q31</text>
</g>
<!-- q27&#45;&gt;q31 -->
<g id="edge29" class="edge">
<title>q27&#45;&gt;q31</title>
<path fill="none" stroke="#8a8a8a" stroke-dasharray="5,2" d="M1996.63,-68.42C2007.93,-63.76 2023.39,-57.4 2036.82,-51.87"/>
<polygon fill="#8a8a8a" stroke="#8a8a8a" points="2038.23,-55.07 2046.14,-48.03 2035.56,-48.6 2038.23,-55.07"/>
<text text-anchor="middle" x="2021.14" y="-62.6" font-family="DejaVu Sans" font-size="13.00" fill="#666666">ε</text>
</g>
<!-- q28 -->
<g id="node30" class="node">
<title>q28</title>
<ellipse fill="none" stroke="black" cx="1778.64" cy="-18" rx="18" ry="18"/>
<text text-anchor="middle" x="1778.64" y="-14.6" font-family="DejaVu Sans" font-size="13.00">q28</text>
</g>
<!-- q29 -->
<g id="node31" class="node">
<title>q29</title>
<ellipse fill="none" stroke="black" cx="1923.64" cy="-21" rx="18" ry="18"/>
<text text-anchor="middle" x="1923.64" y="-17.6" font-family="DejaVu Sans" font-size="13.00">q29</text>
</g>
<!-- q28&#45;&gt;q29 -->
<g id="edge27" class="edge">
<title>q28&#45;&gt;q29</title>
<path fill="none" stroke="black" d="M1796.89,-18.36C1821.26,-18.87 1866.03,-19.81 1895.05,-20.42"/>
<polygon fill="black" stroke="black" points="1895.26,-23.93 1905.33,-20.64 1895.41,-16.93 1895.26,-23.93"/>
<text text-anchor="middle" x="1823.14" y="-22.6" font-family="DejaVu Sans" font-size="13.00">s</text>
</g>
<!-- q29&#45;&gt;q31 -->
<g id="edge31" class="edge">
<title>q29&#45;&gt;q31</title>
<path fill="none" stroke="#8a8a8a" stroke-dasharray="5,2" d="M1941.65,-23.29C1964.51,-26.37 2005.58,-31.91 2034.16,-35.76"/>
<polygon fill="#8a8a8a" stroke="#8a8a8a" points="2034.06,-39.28 2044.44,-37.14 2034.99,-32.34 2034.06,-39.28"/>
<text text-anchor="middle" x="1979.64" y="-33.6" font-family="DejaVu Sans" font-size="13.00" fill="#666666">ε</text>
</g>
<!-- q30&#45;&gt;q25 -->
<g id="edge28" class="edge">
<title>q30&#45;&gt;q25</title>
<path fill="none" stroke="#8a8a8a" stroke-dasharray="5,2" d="M1712.64,-51.93C1723.78,-56.05 1738.86,-61.64 1751.7,-66.39"/>
<polygon fill="#8a8a8a" stroke="#8a8a8a" points="1750.8,-69.79 1761.39,-69.98 1753.23,-63.23 1750.8,-69.79"/>
<text text-anchor="middle" x="1737.14" y="-64.6" font-family="DejaVu Sans" font-size="13.00" fill="#666666">ε</text>
</g>
<!-- q30&#45;&gt;q28 -->
<g id="edge30" class="edge">
<title>q30&#45;&gt;q28</title>
<path fill="none" stroke="#8a8a8a" stroke-dasharray="5,2" d="M1712.29,-38.65C1718.81,-35.74 1726.51,-32.5 1733.64,-30 1739.15,-28.07 1745.14,-26.25 1750.87,-24.65"/>
<polygon fill="#8a8a8a" stroke="#8a8a8a" points="1752,-27.97 1760.75,-22.01 1750.19,-21.21 1752,-27.97"/>
<text text-anchor="middle" x="1737.14" y="-33.6" font-family="DejaVu Sans" font-size="13.00" fill="#666666">ε</text>
</g>
</g>
</svg>
