<?xml version="1.0" encoding="UTF-8" standalone="no"?>
<!DOCTYPE svg PUBLIC "-//W3C//DTD SVG 1.1//EN"
 "http://www.w3.org/Graphics/SVG/1.1/DTD/svg11.dtd">
<!-- Generated by graphviz version 2.43.0 (0)
 -->
<!-- Title: AFNe Pages: 1 -->
<svg width="1720pt" height="184pt"
 viewBox="0.00 0.00 1719.64 184.25" xmlns="http://www.w3.org/2000/svg" xmlns:xlink="http://www.w3.org/1999/xlink">
<g id="graph0" class="graph" transform="scale(1 1) rotate(0) translate(18 166.25)">
<title>AFNe</title>
<polygon fill="white" stroke="transparent" points="-18,18 -18,-166.25 1701.64,-166.25 1701.64,18 -18,18"/>
<text text-anchor="middle" x="841.82" y="-129.85" font-family="DejaVu Sans" font-size="18.00">ER&#45;06 — Linha de diálogo: AFNε em blocos (inicial q0, final q93)</text>
<!-- __ini -->
<g id="node1" class="node">
<title>__ini</title>
<ellipse fill="black" stroke="black" cx="4.32" cy="-48.25" rx="4.32" ry="4.32"/>
</g>
<!-- B0 -->
<g id="node2" class="node">
<title>B0</title>
<path fill="#e8eefc" stroke="black" d="M267.64,-66.25C267.64,-66.25 61.64,-66.25 61.64,-66.25 55.64,-66.25 49.64,-60.25 49.64,-54.25 49.64,-54.25 49.64,-42.25 49.64,-42.25 49.64,-36.25 55.64,-30.25 61.64,-30.25 61.64,-30.25 267.64,-30.25 267.64,-30.25 273.64,-30.25 279.64,-36.25 279.64,-42.25 279.64,-42.25 279.64,-54.25 279.64,-54.25 279.64,-60.25 273.64,-66.25 267.64,-66.25"/>
<text text-anchor="middle" x="164.64" y="-51.85" font-family="DejaVu Sans" font-size="13.00">ER&#45;01 locutor</text>
<text text-anchor="middle" x="164.64" y="-37.85" font-family="DejaVu Sans" font-size="13.00">q0 … q5 (contém o estado inicial)</text>
</g>
<!-- __ini&#45;&gt;B0 -->
<g id="edge1" class="edge">
<title>__ini&#45;&gt;B0</title>
<path fill="none" stroke="black" d="M8.92,-48.25C14.35,-48.25 25.47,-48.25 39.37,-48.25"/>
<polygon fill="black" stroke="black" points="39.41,-51.75 49.41,-48.25 39.41,-44.75 39.41,-51.75"/>
</g>
<!-- q54 -->
<g id="node5" class="node">
<title>q54</title>
<ellipse fill="none" stroke="black" cx="344.64" cy="-48.25" rx="18" ry="18"/>
<text text-anchor="middle" x="344.64" y="-44.85" font-family="DejaVu Sans" font-size="13.00">q54</text>
</g>
<!-- B0&#45;&gt;q54 -->
<g id="edge17" class="edge">
<title>B0&#45;&gt;q54</title>
<path fill="none" stroke="#8a8a8a" stroke-dasharray="5,2" d="M279.88,-48.25C293.45,-48.25 306.16,-48.25 316.61,-48.25"/>
<polygon fill="#8a8a8a" stroke="#8a8a8a" points="316.62,-51.75 326.62,-48.25 316.62,-44.75 316.62,-51.75"/>
<text text-anchor="middle" x="303.14" y="-51.85" font-family="DejaVu Sans" font-size="13.00" fill="#666666">ε</text>
</g>
<!-- q6 -->
<g id="node3" class="node">
<title>q6</title>
<ellipse fill="none" stroke="black" cx="427.64" cy="-81.25" rx="18" ry="18"/>
<text text-anchor="middle" x="427.64" y="-77.85" font-family="DejaVu Sans" font-size="13.00">q6</text>
</g>
<!-- q7 -->
<g id="node4" class="node">
<title>q7</title>
<ellipse fill="none" stroke="black" cx="512.64" cy="-83.25" rx="18" ry="18"/>
<text text-anchor="middle" x="512.64" y="-79.85" font-family="DejaVu Sans" font-size="13.00">q7</text>
</g>
<!-- q6&#45;&gt;q7 -->
<g id="edge2" class="edge">
<title>q6&#45;&gt;q7</title>
<path fill="none" stroke="black" d="M445.84,-81.66C456.97,-81.93 471.7,-82.29 484.4,-82.59"/>
<polygon fill="black" stroke="black" points="484.38,-86.09 494.46,-82.84 484.55,-79.1 484.38,-86.09"/>
<text text-anchor="middle" x="470.14" y="-85.85" font-family="DejaVu Sans" font-size="13.00">␣</text>
</g>
<!-- B1 -->
<g id="node17" class="node">
<title>B1</title>
<path fill="#e8eefc" stroke="black" d="M665.64,-100.25C665.64,-100.25 589.64,-100.25 589.64,-100.25 583.64,-100.25 577.64,-94.25 577.64,-88.25 577.64,-88.25 577.64,-76.25 577.64,-76.25 577.64,-70.25 583.64,-64.25 589.64,-64.25 589.64,-64.25 665.64,-64.25 665.64,-64.25 671.64,-64.25 677.64,-70.25 677.64,-76.25 677.64,-76.25 677.64,-88.25 677.64,-88.25 677.64,-94.25 671.64,-100.25 665.64,-100.25"/>
<text text-anchor="middle" x="627.64" y="-85.85" font-family="DejaVu Sans" font-size="13.00">ER&#45;02 emoção</text>
<text text-anchor="middle" x="627.64" y="-71.85" font-family="DejaVu Sans" font-size="13.00">q8 … q53</text>
</g>
<!-- q7&#45;&gt;B1 -->
<g id="edge3" class="edge">
<title>q7&#45;&gt;B1</title>
<path fill="none" stroke="#8a8a8a" stroke-dasharray="5,2" d="M530.8,-83.1C540.74,-83.01 553.9,-82.89 567.28,-82.78"/>
<polygon fill="#8a8a8a" stroke="#8a8a8a" points="567.53,-86.27 577.5,-82.68 567.47,-79.27 567.53,-86.27"/>
<text text-anchor="middle" x="554.14" y="-85.85" font-family="DejaVu Sans" font-size="13.00" fill="#666666">ε</text>
</g>
<!-- q54&#45;&gt;q6 -->
<g id="edge4" class="edge">
<title>q54&#45;&gt;q6</title>
<path fill="none" stroke="#8a8a8a" stroke-dasharray="5,2" d="M361.64,-54.77C372.96,-59.38 388.36,-65.66 401.33,-70.94"/>
<polygon fill="#8a8a8a" stroke="#8a8a8a" points="400.09,-74.21 410.67,-74.74 402.73,-67.73 400.09,-74.21"/>
<text text-anchor="middle" x="386.14" y="-68.85" font-family="DejaVu Sans" font-size="13.00" fill="#666666">ε</text>
</g>
<!-- q55 -->
<g id="node6" class="node">
<title>q55</title>
<ellipse fill="none" stroke="black" cx="742.64" cy="-48.25" rx="18" ry="18"/>
<text text-anchor="middle" x="742.64" y="-44.85" font-family="DejaVu Sans" font-size="13.00">q55</text>
</g>
<!-- q54&#45;&gt;q55 -->
<g id="edge5" class="edge">
<title>q54&#45;&gt;q55</title>
<path fill="none" stroke="#8a8a8a" stroke-dasharray="5,2" d="M361.82,-42.13C377.99,-36.58 403.67,-29.25 426.64,-29.25 426.64,-29.25 426.64,-29.25 628.64,-29.25 658.52,-29.25 692.24,-35.79 715.01,-41.2"/>
<polygon fill="#8a8a8a" stroke="#8a8a8a" points="714.39,-44.65 724.94,-43.65 716.07,-37.86 714.39,-44.65"/>
<text text-anchor="middle" x="512.64" y="-32.85" font-family="DejaVu Sans" font-size="13.00" fill="#666666">ε</text>
</g>
<!-- q56 -->
<g id="node7" class="node">
<title>q56</title>
<ellipse fill="none" stroke="black" cx="825.64" cy="-48.25" rx="18" ry="18"/>
<text text-anchor="middle" x="825.64" y="-44.85" font-family="DejaVu Sans" font-size="13.00">q56</text>
</g>
<!-- q55&#45;&gt;q56 -->
<g id="edge18" class="edge">
<title>q55&#45;&gt;q56</title>
<path fill="none" stroke="#8a8a8a" stroke-dasharray="5,2" d="M760.82,-48.25C771.45,-48.25 785.33,-48.25 797.44,-48.25"/>
<polygon fill="#8a8a8a" stroke="#8a8a8a" points="797.49,-51.75 807.49,-48.25 797.49,-44.75 797.49,-51.75"/>
<text text-anchor="middle" x="784.14" y="-51.85" font-family="DejaVu Sans" font-size="13.00" fill="#666666">ε</text>
</g>
<!-- q57 -->
<g id="node8" class="node">
<title>q57</title>
<ellipse fill="none" stroke="black" cx="906.64" cy="-48.25" rx="18" ry="18"/>
<text text-anchor="middle" x="906.64" y="-44.85" font-family="DejaVu Sans" font-size="13.00">q57</text>
</g>
<!-- q56&#45;&gt;q57 -->
<g id="edge7" class="edge">
<title>q56&#45;&gt;q57</title>
<path fill="none" stroke="black" d="M843.78,-48.25C853.93,-48.25 867.01,-48.25 878.52,-48.25"/>
<polygon fill="black" stroke="black" points="878.53,-51.75 888.53,-48.25 878.53,-44.75 878.53,-51.75"/>
<text text-anchor="middle" x="866.14" y="-51.85" font-family="DejaVu Sans" font-size="13.00">:</text>
</g>
<!-- q58 -->
<g id="node9" class="node">
<title>q58</title>
<ellipse fill="none" stroke="black" cx="989.64" cy="-48.25" rx="18" ry="18"/>
<text text-anchor="middle" x="989.64" y="-44.85" font-family="DejaVu Sans" font-size="13.00">q58</text>
</g>
<!-- q57&#45;&gt;q58 -->
<g id="edge19" class="edge">
<title>q57&#45;&gt;q58</title>
<path fill="none" stroke="#8a8a8a" stroke-dasharray="5,2" d="M924.82,-48.25C935.45,-48.25 949.33,-48.25 961.44,-48.25"/>
<polygon fill="#8a8a8a" stroke="#8a8a8a" points="961.49,-51.75 971.49,-48.25 961.49,-44.75 961.49,-51.75"/>
<text text-anchor="middle" x="948.14" y="-51.85" font-family="DejaVu Sans" font-size="13.00" fill="#666666">ε</text>
</g>
<!-- q59 -->
<g id="node10" class="node">
<title>q59</title>
<ellipse fill="none" stroke="black" cx="1074.64" cy="-48.25" rx="18" ry="18"/>
<text text-anchor="middle" x="1074.64" y="-44.85" font-family="DejaVu Sans" font-size="13.00">q59</text>
</g>
<!-- q58&#45;&gt;q59 -->
<g id="edge8" class="edge">
<title>q58&#45;&gt;q59</title>
<path fill="none" stroke="black" d="M1007.84,-48.25C1018.97,-48.25 1033.7,-48.25 1046.4,-48.25"/>
<polygon fill="black" stroke="black" points="1046.46,-51.75 1056.46,-48.25 1046.46,-44.75 1046.46,-51.75"/>
<text text-anchor="middle" x="1032.14" y="-51.85" font-family="DejaVu Sans" font-size="13.00">␣</text>
</g>
<!-- q92 -->
<g id="node15" class="node">
<title>q92</title>
<ellipse fill="none" stroke="black" cx="1157.64" cy="-48.25" rx="18" ry="18"/>
<text text-anchor="middle" x="1157.64" y="-44.85" font-family="DejaVu Sans" font-size="13.00">q92</text>
</g>
<!-- q59&#45;&gt;q92 -->
<g id="edge20" class="edge">
<title>q59&#45;&gt;q92</title>
<path fill="none" stroke="#8a8a8a" stroke-dasharray="5,2" d="M1092.82,-48.25C1103.45,-48.25 1117.33,-48.25 1129.44,-48.25"/>
<polygon fill="#8a8a8a" stroke="#8a8a8a" points="1129.49,-51.75 1139.49,-48.25 1129.49,-44.75 1129.49,-51.75"/>
<text text-anchor="middle" x="1116.14" y="-51.85" font-family="DejaVu Sans" font-size="13.00" fill="#666666">ε</text>
</g>
<!-- q60 -->
<g id="node11" class="node">
<title>q60</title>
<ellipse fill="none" stroke="black" cx="1323.64" cy="-100.25" rx="18" ry="18"/>
<text text-anchor="middle" x="1323.64" y="-96.85" font-family="DejaVu Sans" font-size="13.00">q60</text>
</g>
<!-- q61 -->
<g id="node12" class="node">
<title>q61</title>
<ellipse fill="none" stroke="black" cx="1491.64" cy="-102.25" rx="18" ry="18"/>
<text text-anchor="middle" x="1491.64" y="-98.85" font-family="DejaVu Sans" font-size="13.00">q61</text>
</g>
<!-- q60&#45;&gt;q61 -->
<g id="edge9" class="edge">
<title>q60&#45;&gt;q61</title>
<path fill="none" stroke="black" d="M1341.78,-100.46C1370.48,-100.8 1428.51,-101.5 1463.03,-101.92"/>
<polygon fill="black" stroke="black" points="1463.3,-105.42 1473.34,-102.04 1463.39,-98.42 1463.3,-105.42"/>
<text text-anchor="middle" x="1407.64" y="-104.85" font-family="DejaVu Sans" font-size="13.00">B</text>
</g>
<!-- q91 -->
<g id="node14" class="node">
<title>q91</title>
<ellipse fill="none" stroke="black" cx="1574.64" cy="-48.25" rx="18" ry="18"/>
<text text-anchor="middle" x="1574.64" y="-44.85" font-family="DejaVu Sans" font-size="13.00">q91</text>
</g>
<!-- q61&#45;&gt;q91 -->
<g id="edge11" class="edge">
<title>q61&#45;&gt;q91</title>
<path fill="none" stroke="#8a8a8a" stroke-dasharray="5,2" d="M1507.12,-92.6C1519.22,-84.53 1536.68,-72.89 1550.68,-63.56"/>
<polygon fill="#8a8a8a" stroke="#8a8a8a" points="1552.91,-66.28 1559.28,-57.82 1549.02,-60.46 1552.91,-66.28"/>
<text text-anchor="middle" x="1533.14" y="-79.85" font-family="DejaVu Sans" font-size="13.00" fill="#666666">ε</text>
</g>
<!-- q90 -->
<g id="node13" class="node">
<title>q90</title>
<ellipse fill="none" stroke="black" cx="1240.64" cy="-48.25" rx="18" ry="18"/>
<text text-anchor="middle" x="1240.64" y="-44.85" font-family="DejaVu Sans" font-size="13.00">q90</text>
</g>
<!-- q90&#45;&gt;q60 -->
<g id="edge10" class="edge">
<title>q90&#45;&gt;q60</title>
<path fill="none" stroke="#8a8a8a" stroke-dasharray="5,2" d="M1256.12,-57.55C1268.14,-65.26 1285.46,-76.38 1299.42,-85.34"/>
<polygon fill="#8a8a8a" stroke="#8a8a8a" points="1297.71,-88.4 1308.01,-90.86 1301.49,-82.51 1297.71,-88.4"/>
<text text-anchor="middle" x="1282.14" y="-78.85" font-family="DejaVu Sans" font-size="13.00" fill="#666666">ε</text>
</g>
<!-- B2 -->
<g id="node18" class="node">
<title>B2</title>
<path fill="#e8eefc" stroke="black" d="M1441.64,-66.25C1441.64,-66.25 1373.64,-66.25 1373.64,-66.25 1367.64,-66.25 1361.64,-60.25 1361.64,-54.25 1361.64,-54.25 1361.64,-42.25 1361.64,-42.25 1361.64,-36.25 1367.64,-30.25 1373.64,-30.25 1373.64,-30.25 1441.64,-30.25 1441.64,-30.25 1447.64,-30.25 1453.64,-36.25 1453.64,-42.25 1453.64,-42.25 1453.64,-54.25 1453.64,-54.25 1453.64,-60.25 1447.64,-66.25 1441.64,-66.25"/>
<text text-anchor="middle" x="1407.64" y="-51.85" font-family="DejaVu Sans" font-size="13.00">ER&#45;03 evento</text>
<text text-anchor="middle" x="1407.64" y="-37.85" font-family="DejaVu Sans" font-size="13.00">q62 … q89</text>
</g>
<!-- q90&#45;&gt;B2 -->
<g id="edge12" class="edge">
<title>q90&#45;&gt;B2</title>
<path fill="none" stroke="#8a8a8a" stroke-dasharray="5,2" d="M1258.68,-48.25C1280.37,-48.25 1318.92,-48.25 1351.24,-48.25"/>
<polygon fill="#8a8a8a" stroke="#8a8a8a" points="1351.48,-51.75 1361.48,-48.25 1351.48,-44.75 1351.48,-51.75"/>
<text text-anchor="middle" x="1282.14" y="-51.85" font-family="DejaVu Sans" font-size="13.00" fill="#666666">ε</text>
</g>
<!-- q91&#45;&gt;q90 -->
<g id="edge15" class="edge">
<title>q91&#45;&gt;q90</title>
<path fill="none" stroke="#8a8a8a" stroke-dasharray="5,2" d="M1558.19,-40.76C1535.79,-30.35 1492.67,-12.03 1453.64,-5.25 1413.35,1.75 1401.93,1.75 1361.64,-5.25 1327.49,-11.18 1290.21,-25.95 1266.41,-36.52"/>
<polygon fill="#8a8a8a" stroke="#8a8a8a" points="1264.74,-33.44 1257.09,-40.76 1267.64,-39.81 1264.74,-33.44"/>
<text text-anchor="middle" x="1407.64" y="-8.85" font-family="DejaVu Sans" font-size="13.00" fill="#666666">ε</text>
</g>
<!-- q93 -->
<g id="node16" class="node">
<title>q93</title>
<ellipse fill="none" stroke="black" cx="1661.64" cy="-48.25" rx="18" ry="18"/>
<ellipse fill="none" stroke="black" cx="1661.64" cy="-48.25" rx="22" ry="22"/>
<text text-anchor="middle" x="1661.64" y="-44.85" font-family="DejaVu Sans" font-size="13.00">q93</text>
</g>
<!-- q91&#45;&gt;q93 -->
<g id="edge16" class="edge">
<title>q91&#45;&gt;q93</title>
<path fill="none" stroke="#8a8a8a" stroke-dasharray="5,2" d="M1592.84,-48.25C1603.27,-48.25 1616.9,-48.25 1629.2,-48.25"/>
<polygon fill="#8a8a8a" stroke="#8a8a8a" points="1629.55,-51.75 1639.55,-48.25 1629.55,-44.75 1629.55,-51.75"/>
<text text-anchor="middle" x="1616.14" y="-51.85" font-family="DejaVu Sans" font-size="13.00" fill="#666666">ε</text>
</g>
<!-- q92&#45;&gt;q90 -->
<g id="edge14" class="edge">
<title>q92&#45;&gt;q90</title>
<path fill="none" stroke="#8a8a8a" stroke-dasharray="5,2" d="M1175.82,-48.25C1186.45,-48.25 1200.33,-48.25 1212.44,-48.25"/>
<polygon fill="#8a8a8a" stroke="#8a8a8a" points="1212.49,-51.75 1222.49,-48.25 1212.49,-44.75 1212.49,-51.75"/>
<text text-anchor="middle" x="1199.14" y="-51.85" font-family="DejaVu Sans" font-size="13.00" fill="#666666">ε</text>
</g>
<!-- B1&#45;&gt;q55 -->
<g id="edge6" class="edge">
<title>B1&#45;&gt;q55</title>
<path fill="none" stroke="#8a8a8a" stroke-dasharray="5,2" d="M677.87,-67.44C690.9,-63.52 704.44,-59.44 715.69,-56.06"/>
<polygon fill="#8a8a8a" stroke="#8a8a8a" points="716.71,-59.41 725.28,-53.17 714.69,-52.7 716.71,-59.41"/>
<text text-anchor="middle" x="701.14" y="-63.85" font-family="DejaVu Sans" font-size="13.00" fill="#666666">ε</text>
</g>
<!-- B2&#45;&gt;q91 -->
<g id="edge13" class="edge">
<title>B2&#45;&gt;q91</title>
<path fill="none" stroke="#8a8a8a" stroke-dasharray="5,2" d="M1453.73,-48.25C1483.32,-48.25 1521.05,-48.25 1546.21,-48.25"/>
<polygon fill="#8a8a8a" stroke="#8a8a8a" points="1546.49,-51.75 1556.49,-48.25 1546.49,-44.75 1546.49,-51.75"/>
<text text-anchor="middle" x="1491.64" y="-51.85" font-family="DejaVu Sans" font-size="13.00" fill="#666666">ε</text>
</g>
</g>
</svg>
